# xmcd
#
# Track frame offsets:
#	150
#	10748
#	22201
#	34824
#	46089
#	54932
#	64322
#	76412
#	89132
#	99625
#	110290
#	119013
#
# Disc length: 1709 seconds
#
# Revision: 1
# Processed by: cddbd v1.5.2PL0 Copyright (c) Steve Scherf et al.
# Submitted via: audiograbber 1.83.01
#
DISCID=9e06ab0c
DTITLE=Jim Reeves - The Jim Reeves Way
DYEAR=1965
DGENRE=Country
TTITLE0=Make The World Go Away
TTITLE1=In The Misty Moonlight
TTITLE2=You'll Never Know
TTITLE3=There's That Smile Again
TTITLE4=Bolandse Nooientjie
TTITLE5=It Hurts So Much (To See You Go)
TTITLE6=I Can't Stop Loving You
TTITLE7=A Nickel Pice Of Candy
TTITLE8=Where Do I Go To Throw A Picture Away
TTITLE9=Maureen
TTITLE10=Ek Verlang Na Jou
TTITLE11=Somewhere Along The Line
EXTD=
EXTT0=
EXTT1=
EXTT2=
EXTT3=
EXTT4=
EXTT5=
EXTT6=
EXTT7=
EXTT8=
EXTT9=
EXTT10=
EXTT11=
PLAYORDER=
